<svg xmlns="http://www.w3.org/2000/svg" xmlns:xlink="http://www.w3.org/1999/xlink" width="500" zoomAndPan="magnify" viewBox="0 0 375 149.999998" height="200" preserveAspectRatio="xMidYMid meet" version="1.0"><defs><g/><clipPath id="ac0d48ed34"><path d="M 63.183594 57.5625 L 70.722656 57.5625 L 70.722656 66.132812 L 63.183594 66.132812 Z M 63.183594 57.5625 " clip-rule="nonzero"/></clipPath><clipPath id="ad42939573"><path d="M 66.953125 57.5625 C 64.871094 57.5625 63.183594 59.480469 63.183594 61.84375 C 63.183594 64.207031 64.871094 66.125 66.953125 66.125 C 69.035156 66.125 70.722656 64.207031 70.722656 61.84375 C 70.722656 59.480469 69.035156 57.5625 66.953125 57.5625 Z M 66.953125 57.5625 " clip-rule="nonzero"/></clipPath><clipPath id="7df722233f"><path d="M 12.671875 94.96875 L 20.210938 94.96875 L 20.210938 103.539062 L 12.671875 103.539062 Z M 12.671875 94.96875 " clip-rule="nonzero"/></clipPath><clipPath id="79f7559c0e"><path d="M 16.441406 94.96875 C 14.359375 94.96875 12.671875 96.886719 12.671875 99.25 C 12.671875 101.613281 14.359375 103.527344 16.441406 103.527344 C 18.523438 103.527344 20.210938 101.613281 20.210938 99.25 C 20.210938 96.886719 18.523438 94.96875 16.441406 94.96875 Z M 16.441406 94.96875 " clip-rule="nonzero"/></clipPath><clipPath id="46315bd8e4"><path d="M 4.996094 79.90625 L 12.535156 79.90625 L 12.535156 88.476562 L 4.996094 88.476562 Z M 4.996094 79.90625 " clip-rule="nonzero"/></clipPath><clipPath id="4ad87fa78b"><path d="M 8.765625 79.90625 C 6.683594 79.90625 4.996094 81.824219 4.996094 84.1875 C 4.996094 86.550781 6.683594 88.464844 8.765625 88.464844 C 10.847656 88.464844 12.535156 86.550781 12.535156 84.1875 C 12.535156 81.824219 10.847656 79.90625 8.765625 79.90625 Z M 8.765625 79.90625 " clip-rule="nonzero"/></clipPath><clipPath id="674b4c73eb"><path d="M 50.027344 37.777344 L 54.476562 37.777344 L 54.476562 42.472656 L 50.027344 42.472656 Z M 50.027344 37.777344 " clip-rule="nonzero"/></clipPath><clipPath id="b014dfce21"><path d="M 52.25 37.777344 C 51.023438 37.777344 50.027344 38.824219 50.027344 40.117188 C 50.027344 41.410156 51.023438 42.457031 52.25 42.457031 C 53.480469 42.457031 54.476562 41.410156 54.476562 40.117188 C 54.476562 38.824219 53.480469 37.777344 52.25 37.777344 Z M 52.25 37.777344 " clip-rule="nonzero"/></clipPath><clipPath id="22fe08dd64"><path d="M 69.089844 99.25 L 73.542969 99.25 L 73.542969 103.945312 L 69.089844 103.945312 Z M 69.089844 99.25 " clip-rule="nonzero"/></clipPath><clipPath id="9d599482fa"><path d="M 71.316406 99.25 C 70.085938 99.25 69.089844 100.296875 69.089844 101.589844 C 69.089844 102.878906 70.085938 103.925781 71.316406 103.925781 C 72.546875 103.925781 73.542969 102.878906 73.542969 101.589844 C 73.542969 100.296875 72.546875 99.25 71.316406 99.25 Z M 71.316406 99.25 " clip-rule="nonzero"/></clipPath></defs><path stroke-linecap="butt" transform="matrix(0.75, 0, 0, 0.75, 52.251749, 39.742302)" fill="none" stroke-linejoin="miter" d="M -0.00233184 0.499847 L 56.419546 0.499847 " stroke="#000000" stroke-width="1" stroke-opacity="1" stroke-miterlimit="4"/><path stroke-linecap="butt" transform="matrix(0.717218, 0.219312, -0.219312, 0.717218, 94.674329, 39.759133)" fill="none" stroke-linejoin="miter" d="M 0.00199374 0.498617 L 48.502112 0.49873 " stroke="#000000" stroke-width="1" stroke-opacity="1" stroke-miterlimit="4"/><path stroke-linecap="butt" transform="matrix(0.714908, -0.226731, 0.226731, 0.714908, 94.451299, 61.429726)" fill="none" stroke-linejoin="miter" d="M 0.00145488 0.503094 L 48.659568 0.499087 " stroke="#000000" stroke-width="1" stroke-opacity="1" stroke-miterlimit="4"/><path stroke-linecap="butt" transform="matrix(0.75, 0.000000000000001006, -0.000000000000001006, 0.75, 70.72311, 61.412698)" fill="none" stroke-linejoin="miter" d="M -0.000605266 0.501819 L 31.791063 0.501819 " stroke="#000000" stroke-width="1" stroke-opacity="1" stroke-miterlimit="4"/><g fill="#000000" fill-opacity="1"><g transform="translate(164.017904, 68.779363)"><g><path d="M 3.625 0 L 0.78125 0 L 9 -22.375 L 11.796875 -22.375 L 20.015625 0 L 17.171875 0 L 14.921875 -6.34375 L 5.875 -6.34375 Z M 6.734375 -8.734375 L 14.078125 -8.734375 L 10.484375 -18.828125 L 10.3125 -18.828125 Z M 6.734375 -8.734375 "/></g></g></g><g fill="#000000" fill-opacity="1"><g transform="translate(184.823357, 68.779363)"><g><path d="M 17.390625 -22.375 L 20.109375 -22.375 L 20.109375 -7.5625 C 20.109375 -5.882812 19.707031 -4.453125 18.90625 -3.265625 C 18.113281 -2.078125 17.054688 -1.171875 15.734375 -0.546875 C 14.421875 0.078125 12.976562 0.390625 11.40625 0.390625 C 9.832031 0.390625 8.382812 0.078125 7.0625 -0.546875 C 5.75 -1.171875 4.691406 -2.078125 3.890625 -3.265625 C 3.097656 -4.453125 2.703125 -5.882812 2.703125 -7.5625 L 2.703125 -22.375 L 5.421875 -22.375 L 5.421875 -7.5625 C 5.421875 -6.394531 5.695312 -5.40625 6.25 -4.59375 C 6.800781 -3.789062 7.53125 -3.179688 8.4375 -2.765625 C 9.351562 -2.347656 10.34375 -2.140625 11.40625 -2.140625 C 12.46875 -2.140625 13.453125 -2.347656 14.359375 -2.765625 C 15.273438 -3.179688 16.007812 -3.789062 16.5625 -4.59375 C 17.113281 -5.40625 17.390625 -6.394531 17.390625 -7.5625 Z M 17.390625 -22.375 "/></g></g></g><g fill="#000000" fill-opacity="1"><g transform="translate(207.639432, 68.779363)"><g><path d="M 1.484375 -19.96875 L 1.484375 -22.375 L 18.265625 -22.375 L 18.265625 -19.96875 L 11.234375 -19.96875 L 11.234375 0 L 8.515625 0 L 8.515625 -19.96875 Z M 1.484375 -19.96875 "/></g></g></g><g fill="#000000" fill-opacity="1"><g transform="translate(227.39587, 68.779363)"><g><path d="M 21.59375 -11.1875 C 21.59375 -8.820312 21.164062 -6.78125 20.3125 -5.0625 C 19.457031 -3.34375 18.285156 -2.015625 16.796875 -1.078125 C 15.316406 -0.148438 13.625 0.3125 11.71875 0.3125 C 9.800781 0.3125 8.097656 -0.148438 6.609375 -1.078125 C 5.128906 -2.015625 3.960938 -3.34375 3.109375 -5.0625 C 2.253906 -6.78125 1.828125 -8.820312 1.828125 -11.1875 C 1.828125 -13.550781 2.253906 -15.59375 3.109375 -17.3125 C 3.960938 -19.03125 5.128906 -20.351562 6.609375 -21.28125 C 8.097656 -22.21875 9.800781 -22.6875 11.71875 -22.6875 C 13.625 -22.6875 15.316406 -22.21875 16.796875 -21.28125 C 18.285156 -20.351562 19.457031 -19.03125 20.3125 -17.3125 C 21.164062 -15.59375 21.59375 -13.550781 21.59375 -11.1875 Z M 18.96875 -11.1875 C 18.96875 -13.125 18.644531 -14.757812 18 -16.09375 C 17.351562 -17.425781 16.484375 -18.429688 15.390625 -19.109375 C 14.296875 -19.796875 13.070312 -20.140625 11.71875 -20.140625 C 10.363281 -20.140625 9.132812 -19.796875 8.03125 -19.109375 C 6.9375 -18.429688 6.066406 -17.425781 5.421875 -16.09375 C 4.773438 -14.757812 4.453125 -13.125 4.453125 -11.1875 C 4.453125 -9.25 4.773438 -7.613281 5.421875 -6.28125 C 6.066406 -4.945312 6.9375 -3.9375 8.03125 -3.25 C 9.132812 -2.570312 10.363281 -2.234375 11.71875 -2.234375 C 13.070312 -2.234375 14.296875 -2.570312 15.390625 -3.25 C 16.484375 -3.9375 17.351562 -4.945312 18 -6.28125 C 18.644531 -7.613281 18.96875 -9.25 18.96875 -11.1875 Z M 18.96875 -11.1875 "/></g></g></g><g fill="#000000" fill-opacity="1"><g transform="translate(250.823859, 68.779363)"><g><path d="M 2.703125 -22.375 L 5.9375 -22.375 L 13.546875 -3.796875 L 13.8125 -3.796875 L 21.40625 -22.375 L 24.640625 -22.375 L 24.640625 0 L 22.109375 0 L 22.109375 -17 L 21.890625 -17 L 14.90625 0 L 12.453125 0 L 5.46875 -17 L 5.25 -17 L 5.25 0 L 2.703125 0 Z M 2.703125 -22.375 "/></g></g></g><g fill="#000000" fill-opacity="1"><g transform="translate(278.885006, 68.779363)"><g><path d="M 3.625 0 L 0.78125 0 L 9 -22.375 L 11.796875 -22.375 L 20.015625 0 L 17.171875 0 L 14.921875 -6.34375 L 5.875 -6.34375 Z M 6.734375 -8.734375 L 14.078125 -8.734375 L 10.484375 -18.828125 L 10.3125 -18.828125 Z M 6.734375 -8.734375 "/></g></g></g><g fill="#000000" fill-opacity="1"><g transform="translate(299.690459, 68.779363)"><g><path d="M 1.484375 -19.96875 L 1.484375 -22.375 L 18.265625 -22.375 L 18.265625 -19.96875 L 11.234375 -19.96875 L 11.234375 0 L 8.515625 0 L 8.515625 -19.96875 Z M 1.484375 -19.96875 "/></g></g></g><g fill="#000000" fill-opacity="1"><g transform="translate(319.446897, 68.779363)"><g><path d="M 2.703125 0 L 2.703125 -22.375 L 16.21875 -22.375 L 16.21875 -19.96875 L 5.421875 -19.96875 L 5.421875 -12.40625 L 15.515625 -12.40625 L 15.515625 -10 L 5.421875 -10 L 5.421875 -2.40625 L 16.390625 -2.40625 L 16.390625 0 Z M 2.703125 0 "/></g></g></g><g fill="#000000" fill-opacity="1"><g transform="translate(337.848352, 68.779363)"><g><path d="M 9.609375 0 L 2.703125 0 L 2.703125 -22.375 L 9.921875 -22.375 C 12.085938 -22.375 13.941406 -21.925781 15.484375 -21.03125 C 17.035156 -20.144531 18.222656 -18.867188 19.046875 -17.203125 C 19.867188 -15.535156 20.28125 -13.546875 20.28125 -11.234375 C 20.28125 -8.898438 19.863281 -6.894531 19.03125 -5.21875 C 18.195312 -3.539062 16.984375 -2.25 15.390625 -1.34375 C 13.804688 -0.445312 11.878906 0 9.609375 0 Z M 5.421875 -2.40625 L 9.4375 -2.40625 C 12.21875 -2.40625 14.28125 -3.191406 15.625 -4.765625 C 16.976562 -6.347656 17.65625 -8.503906 17.65625 -11.234375 C 17.65625 -13.941406 16.988281 -16.070312 15.65625 -17.625 C 14.332031 -19.1875 12.363281 -19.96875 9.75 -19.96875 L 5.421875 -19.96875 Z M 5.421875 -2.40625 "/></g></g></g><g fill="#000000" fill-opacity="1"><g transform="translate(173.870187, 85.021148)"><g><path d="M 1.296875 0 L 1.296875 -10.75 L 4.9375 -10.75 C 5.769531 -10.75 6.457031 -10.601562 7 -10.3125 C 7.539062 -10.03125 7.941406 -9.640625 8.203125 -9.140625 C 8.460938 -8.648438 8.59375 -8.085938 8.59375 -7.453125 C 8.59375 -6.742188 8.425781 -6.125 8.09375 -5.59375 C 7.769531 -5.0625 7.265625 -4.675781 6.578125 -4.4375 L 9 0 L 7.5 0 L 5.234375 -4.203125 C 5.140625 -4.203125 5.046875 -4.203125 4.953125 -4.203125 L 2.609375 -4.203125 L 2.609375 0 Z M 2.609375 -5.375 L 4.90625 -5.375 C 5.769531 -5.375 6.382812 -5.554688 6.75 -5.921875 C 7.125 -6.296875 7.3125 -6.804688 7.3125 -7.453125 C 7.3125 -8.097656 7.125 -8.613281 6.75 -9 C 6.382812 -9.394531 5.765625 -9.59375 4.890625 -9.59375 L 2.609375 -9.59375 Z M 2.609375 -5.375 "/></g></g></g><g fill="#000000" fill-opacity="1"><g transform="translate(183.321832, 85.021148)"><g><path d="M 1.296875 0 L 1.296875 -10.75 L 7.796875 -10.75 L 7.796875 -9.59375 L 2.609375 -9.59375 L 2.609375 -5.96875 L 7.453125 -5.96875 L 7.453125 -4.8125 L 2.609375 -4.8125 L 2.609375 -1.15625 L 7.875 -1.15625 L 7.875 0 Z M 1.296875 0 "/></g></g></g><g fill="#000000" fill-opacity="1"><g transform="translate(192.164367, 85.021148)"><g><path d="M 7.1875 -8.0625 C 7.125 -8.59375 6.867188 -9.003906 6.421875 -9.296875 C 5.972656 -9.597656 5.421875 -9.75 4.765625 -9.75 C 4.054688 -9.75 3.484375 -9.578125 3.046875 -9.234375 C 2.609375 -8.898438 2.390625 -8.472656 2.390625 -7.953125 C 2.390625 -7.566406 2.507812 -7.253906 2.75 -7.015625 C 2.988281 -6.785156 3.269531 -6.601562 3.59375 -6.46875 C 3.914062 -6.34375 4.207031 -6.242188 4.46875 -6.171875 L 5.5625 -5.875 C 5.84375 -5.800781 6.15625 -5.695312 6.5 -5.5625 C 6.84375 -5.4375 7.171875 -5.265625 7.484375 -5.046875 C 7.804688 -4.828125 8.070312 -4.539062 8.28125 -4.1875 C 8.488281 -3.84375 8.59375 -3.421875 8.59375 -2.921875 C 8.59375 -2.335938 8.4375 -1.8125 8.125 -1.34375 C 7.820312 -0.875 7.378906 -0.5 6.796875 -0.21875 C 6.222656 0.0507812 5.523438 0.1875 4.703125 0.1875 C 3.546875 0.1875 2.628906 -0.0820312 1.953125 -0.625 C 1.273438 -1.175781 0.90625 -1.890625 0.84375 -2.765625 L 2.1875 -2.765625 C 2.21875 -2.359375 2.351562 -2.023438 2.59375 -1.765625 C 2.832031 -1.503906 3.132812 -1.304688 3.5 -1.171875 C 3.875 -1.046875 4.273438 -0.984375 4.703125 -0.984375 C 5.203125 -0.984375 5.648438 -1.0625 6.046875 -1.21875 C 6.441406 -1.382812 6.753906 -1.613281 6.984375 -1.90625 C 7.210938 -2.207031 7.328125 -2.550781 7.328125 -2.9375 C 7.328125 -3.289062 7.226562 -3.578125 7.03125 -3.796875 C 6.832031 -4.023438 6.566406 -4.207031 6.234375 -4.34375 C 5.910156 -4.488281 5.5625 -4.613281 5.1875 -4.71875 L 3.859375 -5.109375 C 3.023438 -5.347656 2.363281 -5.691406 1.875 -6.140625 C 1.382812 -6.585938 1.140625 -7.171875 1.140625 -7.890625 C 1.140625 -8.492188 1.300781 -9.019531 1.625 -9.46875 C 1.945312 -9.914062 2.382812 -10.265625 2.9375 -10.515625 C 3.5 -10.765625 4.125 -10.890625 4.8125 -10.890625 C 5.5 -10.890625 6.113281 -10.765625 6.65625 -10.515625 C 7.195312 -10.273438 7.625 -9.941406 7.9375 -9.515625 C 8.257812 -9.085938 8.425781 -8.601562 8.4375 -8.0625 Z M 7.1875 -8.0625 "/></g></g></g><g fill="#000000" fill-opacity="1"><g transform="translate(201.595009, 85.021148)"><g><path d="M 1.296875 0 L 1.296875 -10.75 L 7.796875 -10.75 L 7.796875 -9.59375 L 2.609375 -9.59375 L 2.609375 -5.96875 L 7.453125 -5.96875 L 7.453125 -4.8125 L 2.609375 -4.8125 L 2.609375 -1.15625 L 7.875 -1.15625 L 7.875 0 Z M 1.296875 0 "/></g></g></g><g fill="#000000" fill-opacity="1"><g transform="translate(210.437544, 85.021148)"><g><path d="M 1.75 0 L 0.375 0 L 4.328125 -10.75 L 5.671875 -10.75 L 9.609375 0 L 8.25 0 L 7.171875 -3.046875 L 2.828125 -3.046875 Z M 3.234375 -4.203125 L 6.765625 -4.203125 L 5.046875 -9.046875 L 4.953125 -9.046875 Z M 3.234375 -4.203125 "/></g></g></g><g fill="#000000" fill-opacity="1"><g transform="translate(220.435291, 85.021148)"><g><path d="M 1.296875 0 L 1.296875 -10.75 L 4.9375 -10.75 C 5.769531 -10.75 6.457031 -10.601562 7 -10.3125 C 7.539062 -10.03125 7.941406 -9.640625 8.203125 -9.140625 C 8.460938 -8.648438 8.59375 -8.085938 8.59375 -7.453125 C 8.59375 -6.742188 8.425781 -6.125 8.09375 -5.59375 C 7.769531 -5.0625 7.265625 -4.675781 6.578125 -4.4375 L 9 0 L 7.5 0 L 5.234375 -4.203125 C 5.140625 -4.203125 5.046875 -4.203125 4.953125 -4.203125 L 2.609375 -4.203125 L 2.609375 0 Z M 2.609375 -5.375 L 4.90625 -5.375 C 5.769531 -5.375 6.382812 -5.554688 6.75 -5.921875 C 7.125 -6.296875 7.3125 -6.804688 7.3125 -7.453125 C 7.3125 -8.097656 7.125 -8.613281 6.75 -9 C 6.382812 -9.394531 5.765625 -9.59375 4.890625 -9.59375 L 2.609375 -9.59375 Z M 2.609375 -5.375 "/></g></g></g><g fill="#000000" fill-opacity="1"><g transform="translate(229.886936, 85.021148)"><g><path d="M 9.953125 -7.390625 L 8.65625 -7.390625 C 8.550781 -7.890625 8.347656 -8.304688 8.046875 -8.640625 C 7.742188 -8.984375 7.382812 -9.238281 6.96875 -9.40625 C 6.550781 -9.582031 6.101562 -9.671875 5.625 -9.671875 C 4.976562 -9.671875 4.390625 -9.503906 3.859375 -9.171875 C 3.335938 -8.847656 2.921875 -8.363281 2.609375 -7.71875 C 2.296875 -7.082031 2.140625 -6.300781 2.140625 -5.375 C 2.140625 -4.445312 2.296875 -3.660156 2.609375 -3.015625 C 2.921875 -2.378906 3.335938 -1.894531 3.859375 -1.5625 C 4.390625 -1.238281 4.976562 -1.078125 5.625 -1.078125 C 6.101562 -1.078125 6.550781 -1.160156 6.96875 -1.328125 C 7.382812 -1.503906 7.742188 -1.757812 8.046875 -2.09375 C 8.347656 -2.4375 8.550781 -2.859375 8.65625 -3.359375 L 9.953125 -3.359375 C 9.816406 -2.617188 9.546875 -1.988281 9.140625 -1.46875 C 8.734375 -0.945312 8.222656 -0.546875 7.609375 -0.265625 C 7.003906 0.00390625 6.34375 0.140625 5.625 0.140625 C 4.707031 0.140625 3.890625 -0.0820312 3.171875 -0.53125 C 2.460938 -0.976562 1.898438 -1.613281 1.484375 -2.4375 C 1.078125 -3.257812 0.875 -4.238281 0.875 -5.375 C 0.875 -6.507812 1.078125 -7.488281 1.484375 -8.3125 C 1.898438 -9.132812 2.460938 -9.769531 3.171875 -10.21875 C 3.890625 -10.664062 4.707031 -10.890625 5.625 -10.890625 C 6.34375 -10.890625 7.003906 -10.75 7.609375 -10.46875 C 8.222656 -10.195312 8.734375 -9.800781 9.140625 -9.28125 C 9.546875 -8.757812 9.816406 -8.128906 9.953125 -7.390625 Z M 9.953125 -7.390625 "/></g></g></g><g fill="#000000" fill-opacity="1"><g transform="translate(240.64081, 85.021148)"><g><path d="M 1.296875 0 L 1.296875 -10.75 L 2.609375 -10.75 L 2.609375 -5.96875 L 8.328125 -5.96875 L 8.328125 -10.75 L 9.640625 -10.75 L 9.640625 0 L 8.328125 0 L 8.328125 -4.8125 L 2.609375 -4.8125 L 2.609375 0 Z M 1.296875 0 "/></g></g></g><g fill="#000000" fill-opacity="1"><g transform="translate(251.583725, 85.021148)"><g/></g></g><g fill="#000000" fill-opacity="1"><g transform="translate(255.742442, 85.021148)"><g><path d="M 0.71875 -9.59375 L 0.71875 -10.75 L 8.78125 -10.75 L 8.78125 -9.59375 L 5.390625 -9.59375 L 5.390625 0 L 4.09375 0 L 4.09375 -9.59375 Z M 0.71875 -9.59375 "/></g></g></g><g fill="#000000" fill-opacity="1"><g transform="translate(265.236092, 85.021148)"><g><path d="M 10.375 -5.375 C 10.375 -4.238281 10.164062 -3.257812 9.75 -2.4375 C 9.34375 -1.613281 8.78125 -0.976562 8.0625 -0.53125 C 7.351562 -0.0820312 6.539062 0.140625 5.625 0.140625 C 4.707031 0.140625 3.890625 -0.0820312 3.171875 -0.53125 C 2.460938 -0.976562 1.898438 -1.613281 1.484375 -2.4375 C 1.078125 -3.257812 0.875 -4.238281 0.875 -5.375 C 0.875 -6.507812 1.078125 -7.488281 1.484375 -8.3125 C 1.898438 -9.132812 2.460938 -9.769531 3.171875 -10.21875 C 3.890625 -10.664062 4.707031 -10.890625 5.625 -10.890625 C 6.539062 -10.890625 7.351562 -10.664062 8.0625 -10.21875 C 8.78125 -9.769531 9.34375 -9.132812 9.75 -8.3125 C 10.164062 -7.488281 10.375 -6.507812 10.375 -5.375 Z M 9.109375 -5.375 C 9.109375 -6.300781 8.953125 -7.082031 8.640625 -7.71875 C 8.335938 -8.363281 7.921875 -8.847656 7.390625 -9.171875 C 6.867188 -9.503906 6.28125 -9.671875 5.625 -9.671875 C 4.976562 -9.671875 4.390625 -9.503906 3.859375 -9.171875 C 3.335938 -8.847656 2.921875 -8.363281 2.609375 -7.71875 C 2.296875 -7.082031 2.140625 -6.300781 2.140625 -5.375 C 2.140625 -4.445312 2.296875 -3.660156 2.609375 -3.015625 C 2.921875 -2.378906 3.335938 -1.894531 3.859375 -1.5625 C 4.390625 -1.238281 4.976562 -1.078125 5.625 -1.078125 C 6.28125 -1.078125 6.867188 -1.238281 7.390625 -1.5625 C 7.921875 -1.894531 8.335938 -2.378906 8.640625 -3.015625 C 8.953125 -3.660156 9.109375 -4.445312 9.109375 -5.375 Z M 9.109375 -5.375 "/></g></g></g><g fill="#000000" fill-opacity="1"><g transform="translate(276.494063, 85.021148)"><g><path d="M 10.375 -5.375 C 10.375 -4.238281 10.164062 -3.257812 9.75 -2.4375 C 9.34375 -1.613281 8.78125 -0.976562 8.0625 -0.53125 C 7.351562 -0.0820312 6.539062 0.140625 5.625 0.140625 C 4.707031 0.140625 3.890625 -0.0820312 3.171875 -0.53125 C 2.460938 -0.976562 1.898438 -1.613281 1.484375 -2.4375 C 1.078125 -3.257812 0.875 -4.238281 0.875 -5.375 C 0.875 -6.507812 1.078125 -7.488281 1.484375 -8.3125 C 1.898438 -9.132812 2.460938 -9.769531 3.171875 -10.21875 C 3.890625 -10.664062 4.707031 -10.890625 5.625 -10.890625 C 6.539062 -10.890625 7.351562 -10.664062 8.0625 -10.21875 C 8.78125 -9.769531 9.34375 -9.132812 9.75 -8.3125 C 10.164062 -7.488281 10.375 -6.507812 10.375 -5.375 Z M 9.109375 -5.375 C 9.109375 -6.300781 8.953125 -7.082031 8.640625 -7.71875 C 8.335938 -8.363281 7.921875 -8.847656 7.390625 -9.171875 C 6.867188 -9.503906 6.28125 -9.671875 5.625 -9.671875 C 4.976562 -9.671875 4.390625 -9.503906 3.859375 -9.171875 C 3.335938 -8.847656 2.921875 -8.363281 2.609375 -7.71875 C 2.296875 -7.082031 2.140625 -6.300781 2.140625 -5.375 C 2.140625 -4.445312 2.296875 -3.660156 2.609375 -3.015625 C 2.921875 -2.378906 3.335938 -1.894531 3.859375 -1.5625 C 4.390625 -1.238281 4.976562 -1.078125 5.625 -1.078125 C 6.28125 -1.078125 6.867188 -1.238281 7.390625 -1.5625 C 7.921875 -1.894531 8.335938 -2.378906 8.640625 -3.015625 C 8.953125 -3.660156 9.109375 -4.445312 9.109375 -5.375 Z M 9.109375 -5.375 "/></g></g></g><g fill="#000000" fill-opacity="1"><g transform="translate(287.752034, 85.021148)"><g><path d="M 1.296875 0 L 1.296875 -10.75 L 2.609375 -10.75 L 2.609375 -1.15625 L 7.59375 -1.15625 L 7.59375 0 Z M 1.296875 0 "/></g></g></g><g fill="#000000" fill-opacity="1"><g transform="translate(296.069489, 85.021148)"><g><path d="M 7.1875 -8.0625 C 7.125 -8.59375 6.867188 -9.003906 6.421875 -9.296875 C 5.972656 -9.597656 5.421875 -9.75 4.765625 -9.75 C 4.054688 -9.75 3.484375 -9.578125 3.046875 -9.234375 C 2.609375 -8.898438 2.390625 -8.472656 2.390625 -7.953125 C 2.390625 -7.566406 2.507812 -7.253906 2.75 -7.015625 C 2.988281 -6.785156 3.269531 -6.601562 3.59375 -6.46875 C 3.914062 -6.34375 4.207031 -6.242188 4.46875 -6.171875 L 5.5625 -5.875 C 5.84375 -5.800781 6.15625 -5.695312 6.5 -5.5625 C 6.84375 -5.4375 7.171875 -5.265625 7.484375 -5.046875 C 7.804688 -4.828125 8.070312 -4.539062 8.28125 -4.1875 C 8.488281 -3.84375 8.59375 -3.421875 8.59375 -2.921875 C 8.59375 -2.335938 8.4375 -1.8125 8.125 -1.34375 C 7.820312 -0.875 7.378906 -0.5 6.796875 -0.21875 C 6.222656 0.0507812 5.523438 0.1875 4.703125 0.1875 C 3.546875 0.1875 2.628906 -0.0820312 1.953125 -0.625 C 1.273438 -1.175781 0.90625 -1.890625 0.84375 -2.765625 L 2.1875 -2.765625 C 2.21875 -2.359375 2.351562 -2.023438 2.59375 -1.765625 C 2.832031 -1.503906 3.132812 -1.304688 3.5 -1.171875 C 3.875 -1.046875 4.273438 -0.984375 4.703125 -0.984375 C 5.203125 -0.984375 5.648438 -1.0625 6.046875 -1.21875 C 6.441406 -1.382812 6.753906 -1.613281 6.984375 -1.90625 C 7.210938 -2.207031 7.328125 -2.550781 7.328125 -2.9375 C 7.328125 -3.289062 7.226562 -3.578125 7.03125 -3.796875 C 6.832031 -4.023438 6.566406 -4.207031 6.234375 -4.34375 C 5.910156 -4.488281 5.5625 -4.613281 5.1875 -4.71875 L 3.859375 -5.109375 C 3.023438 -5.347656 2.363281 -5.691406 1.875 -6.140625 C 1.382812 -6.585938 1.140625 -7.171875 1.140625 -7.890625 C 1.140625 -8.492188 1.300781 -9.019531 1.625 -9.46875 C 1.945312 -9.914062 2.382812 -10.265625 2.9375 -10.515625 C 3.5 -10.765625 4.125 -10.890625 4.8125 -10.890625 C 5.5 -10.890625 6.113281 -10.765625 6.65625 -10.515625 C 7.195312 -10.273438 7.625 -9.941406 7.9375 -9.515625 C 8.257812 -9.085938 8.425781 -8.601562 8.4375 -8.0625 Z M 7.1875 -8.0625 "/></g></g></g><g fill="#000000" fill-opacity="1"><g transform="translate(305.500131, 85.021148)"><g><path d="M 2.984375 -1.46875 L 2.890625 -0.90625 C 2.835938 -0.5 2.75 -0.0703125 2.625 0.375 C 2.507812 0.832031 2.382812 1.257812 2.25 1.65625 C 2.125 2.0625 2.019531 2.382812 1.9375 2.625 L 0.984375 2.625 C 1.035156 2.394531 1.097656 2.097656 1.171875 1.734375 C 1.242188 1.367188 1.316406 0.957031 1.390625 0.5 C 1.460938 0.0507812 1.523438 -0.40625 1.578125 -0.875 L 1.640625 -1.46875 Z M 2.984375 -1.46875 "/></g></g></g><g fill="#000000" fill-opacity="1"><g transform="translate(309.637846, 85.021148)"><g/></g></g><g fill="#000000" fill-opacity="1"><g transform="translate(313.796564, 85.021148)"><g><path d="M 1.296875 0 L 1.296875 -10.75 L 2.609375 -10.75 L 2.609375 -1.15625 L 7.59375 -1.15625 L 7.59375 0 Z M 1.296875 0 "/></g></g></g><g fill="#000000" fill-opacity="1"><g transform="translate(322.114018, 85.021148)"><g><path d="M 1.296875 0 L 1.296875 -10.75 L 2.609375 -10.75 L 2.609375 -1.15625 L 7.59375 -1.15625 L 7.59375 0 Z M 1.296875 0 "/></g></g></g><g fill="#000000" fill-opacity="1"><g transform="translate(330.431472, 85.021148)"><g><path d="M 9.953125 -7.390625 L 8.65625 -7.390625 C 8.550781 -7.890625 8.347656 -8.304688 8.046875 -8.640625 C 7.742188 -8.984375 7.382812 -9.238281 6.96875 -9.40625 C 6.550781 -9.582031 6.101562 -9.671875 5.625 -9.671875 C 4.976562 -9.671875 4.390625 -9.503906 3.859375 -9.171875 C 3.335938 -8.847656 2.921875 -8.363281 2.609375 -7.71875 C 2.296875 -7.082031 2.140625 -6.300781 2.140625 -5.375 C 2.140625 -4.445312 2.296875 -3.660156 2.609375 -3.015625 C 2.921875 -2.378906 3.335938 -1.894531 3.859375 -1.5625 C 4.390625 -1.238281 4.976562 -1.078125 5.625 -1.078125 C 6.101562 -1.078125 6.550781 -1.160156 6.96875 -1.328125 C 7.382812 -1.503906 7.742188 -1.757812 8.046875 -2.09375 C 8.347656 -2.4375 8.550781 -2.859375 8.65625 -3.359375 L 9.953125 -3.359375 C 9.816406 -2.617188 9.546875 -1.988281 9.140625 -1.46875 C 8.734375 -0.945312 8.222656 -0.546875 7.609375 -0.265625 C 7.003906 0.00390625 6.34375 0.140625 5.625 0.140625 C 4.707031 0.140625 3.890625 -0.0820312 3.171875 -0.53125 C 2.460938 -0.976562 1.898438 -1.613281 1.484375 -2.4375 C 1.078125 -3.257812 0.875 -4.238281 0.875 -5.375 C 0.875 -6.507812 1.078125 -7.488281 1.484375 -8.3125 C 1.898438 -9.132812 2.460938 -9.769531 3.171875 -10.21875 C 3.890625 -10.664062 4.707031 -10.890625 5.625 -10.890625 C 6.34375 -10.890625 7.003906 -10.75 7.609375 -10.46875 C 8.222656 -10.195312 8.734375 -9.800781 9.140625 -9.28125 C 9.546875 -8.757812 9.816406 -8.128906 9.953125 -7.390625 Z M 9.953125 -7.390625 "/></g></g></g><g clip-path="url(#ac0d48ed34)"><g clip-path="url(#ad42939573)"><path fill="#000000" d="M 63.183594 57.5625 L 70.722656 57.5625 L 70.722656 66.132812 L 63.183594 66.132812 Z M 63.183594 57.5625 " fill-opacity="1" fill-rule="nonzero"/></g></g><path stroke-linecap="butt" transform="matrix(0.75, 0, 0, 0.75, 8.764822, 83.194706)" fill="none" stroke-linejoin="miter" d="M 0.0010706 0.500809 L 143.167746 0.500809 " stroke="#000000" stroke-width="1" stroke-opacity="1" stroke-miterlimit="4"/><path stroke-linecap="butt" transform="matrix(0.540312, -0.520157, 0.520157, 0.540312, 71.055945, 100.449459)" fill="none" stroke-linejoin="miter" d="M 0.00116836 0.499523 L 31.789883 0.499444 " stroke="#000000" stroke-width="1" stroke-opacity="1" stroke-miterlimit="4"/><path stroke-linecap="butt" transform="matrix(0.553915, -0.505646, 0.505646, 0.553915, 40.030247, 98.969828)" fill="none" stroke-linejoin="miter" d="M -0.00117024 0.497682 L 31.007363 0.497043 " stroke="#000000" stroke-width="1" stroke-opacity="1" stroke-miterlimit="4"/><path stroke-linecap="butt" transform="matrix(0.749695, -0.0214017, 0.0214017, 0.749695, 16.431537, 99.554557)" fill="none" stroke-linejoin="miter" d="M -0.00111928 0.500346 L 31.803465 0.501658 " stroke="#000000" stroke-width="1" stroke-opacity="1" stroke-miterlimit="4"/><path stroke-linecap="butt" transform="matrix(0.672936, -0.331145, 0.331145, 0.672936, 115.974364, 83.231203)" fill="none" stroke-linejoin="miter" d="M 0.00156874 0.498893 L 65.775901 0.498271 " stroke="#000000" stroke-width="1" stroke-opacity="1" stroke-miterlimit="4"/><path stroke-linecap="butt" transform="matrix(0.706717, 0.251099, -0.251099, 0.706717, 129.478253, 50.401547)" fill="none" stroke-linejoin="miter" d="M -0.00187966 0.499254 L 43.94088 0.500894 " stroke="#000000" stroke-width="1" stroke-opacity="1" stroke-miterlimit="4"/><g clip-path="url(#7df722233f)"><g clip-path="url(#79f7559c0e)"><path fill="#000000" d="M 12.671875 94.96875 L 20.210938 94.96875 L 20.210938 103.539062 L 12.671875 103.539062 Z M 12.671875 94.96875 " fill-opacity="1" fill-rule="nonzero"/></g></g><g clip-path="url(#46315bd8e4)"><g clip-path="url(#4ad87fa78b)"><path fill="#000000" d="M 4.996094 79.90625 L 12.535156 79.90625 L 12.535156 88.476562 L 4.996094 88.476562 Z M 4.996094 79.90625 " fill-opacity="1" fill-rule="nonzero"/></g></g><path stroke-linecap="butt" transform="matrix(0.75, 0.000000000000001006, -0.000000000000001006, 0.75, 160.404735, 61.412698)" fill="none" stroke-linejoin="miter" d="M 0.00201951 0.501819 L 31.78848 0.501819 " stroke="#000000" stroke-width="1" stroke-opacity="1" stroke-miterlimit="4"/><g clip-path="url(#674b4c73eb)"><g clip-path="url(#b014dfce21)"><path fill="#000000" d="M 50.027344 37.777344 L 54.476562 37.777344 L 54.476562 42.457031 L 50.027344 42.457031 Z M 50.027344 37.777344 " fill-opacity="1" fill-rule="nonzero"/></g></g><g clip-path="url(#22fe08dd64)"><g clip-path="url(#9d599482fa)"><path fill="#000000" d="M 69.089844 99.25 L 73.542969 99.25 L 73.542969 103.925781 L 69.089844 103.925781 Z M 69.089844 99.25 " fill-opacity="1" fill-rule="nonzero"/></g></g></svg>